<mxfile host="65bd71144e">
    <diagram id="eH6yC-BO96H5wbYRfA5x" name="Page-1">
        <mxGraphModel dx="1094" dy="820" grid="1" gridSize="10" guides="1" tooltips="1" connect="1" arrows="1" fold="1" page="1" pageScale="1" pageWidth="827" pageHeight="1169" math="0" shadow="0">
            <root>
                <mxCell id="0"/>
                <mxCell id="1" parent="0"/>
                <mxCell id="2" style="edgeStyle=none;html=1;exitX=1;exitY=0.5;exitDx=0;exitDy=0;entryX=0;entryY=0.5;entryDx=0;entryDy=0;shadow=0;rounded=0;curved=1;fontStyle=1" edge="1" parent="1" source="3" target="6">
                    <mxGeometry relative="1" as="geometry"/>
                </mxCell>
                <mxCell id="3" value="Start" style="ellipse;whiteSpace=wrap;html=1;aspect=fixed;shadow=0;fontStyle=1" vertex="1" parent="1">
                    <mxGeometry x="110" y="120" width="70" height="70" as="geometry"/>
                </mxCell>
                <mxCell id="4" style="edgeStyle=none;html=1;exitX=1;exitY=0.5;exitDx=0;exitDy=0;entryX=0;entryY=0.5;entryDx=0;entryDy=0;rounded=0;curved=1;shadow=0;fontStyle=1" edge="1" parent="1" source="6" target="9">
                    <mxGeometry relative="1" as="geometry"/>
                </mxCell>
                <mxCell id="6" value="H" style="ellipse;whiteSpace=wrap;html=1;aspect=fixed;shadow=0;fontStyle=1" vertex="1" parent="1">
                    <mxGeometry x="260" y="120" width="70" height="70" as="geometry"/>
                </mxCell>
                <mxCell id="7" style="edgeStyle=none;html=1;exitX=1;exitY=0.5;exitDx=0;exitDy=0;entryX=0;entryY=0.5;entryDx=0;entryDy=0;rounded=0;curved=1;shadow=0;fontStyle=1" edge="1" parent="1" source="9" target="12">
                    <mxGeometry relative="1" as="geometry"/>
                </mxCell>
                <mxCell id="9" value="Ht" style="ellipse;whiteSpace=wrap;html=1;aspect=fixed;shadow=0;fontStyle=1" vertex="1" parent="1">
                    <mxGeometry x="400" y="120" width="70" height="70" as="geometry"/>
                </mxCell>
                <mxCell id="10" style="edgeStyle=none;html=1;exitX=1;exitY=0.5;exitDx=0;exitDy=0;entryX=0;entryY=0;entryDx=0;entryDy=0;rounded=0;curved=1;shadow=0;fontStyle=1" edge="1" parent="1" source="12" target="15">
                    <mxGeometry relative="1" as="geometry"/>
                </mxCell>
                <mxCell id="12" value="Htt" style="ellipse;whiteSpace=wrap;html=1;aspect=fixed;shadow=0;fontStyle=1" vertex="1" parent="1">
                    <mxGeometry x="540" y="120" width="70" height="70" as="geometry"/>
                </mxCell>
                <mxCell id="13" style="edgeStyle=none;html=1;exitX=0.5;exitY=1;exitDx=0;exitDy=0;entryX=1;entryY=0.5;entryDx=0;entryDy=0;shadow=0;rounded=0;curved=1;fontStyle=1" edge="1" parent="1" source="15" target="18">
                    <mxGeometry relative="1" as="geometry">
                        <Array as="points">
                            <mxPoint x="680" y="290"/>
                        </Array>
                    </mxGeometry>
                </mxCell>
                <mxCell id="15" value="Http" style="ellipse;whiteSpace=wrap;html=1;aspect=fixed;shadow=0;fontStyle=1" vertex="1" parent="1">
                    <mxGeometry x="660" y="180" width="70" height="70" as="geometry"/>
                </mxCell>
                <mxCell id="16" style="edgeStyle=none;html=1;exitX=0;exitY=1;exitDx=0;exitDy=0;entryX=1;entryY=0.5;entryDx=0;entryDy=0;rounded=0;curved=1;shadow=0;fontStyle=1" edge="1" parent="1" source="18" target="21">
                    <mxGeometry relative="1" as="geometry">
                        <Array as="points">
                            <mxPoint x="560" y="350"/>
                        </Array>
                    </mxGeometry>
                </mxCell>
                <mxCell id="18" value="Https" style="ellipse;whiteSpace=wrap;html=1;aspect=fixed;shadow=0;fontStyle=1" vertex="1" parent="1">
                    <mxGeometry x="560" y="270" width="70" height="70" as="geometry"/>
                </mxCell>
                <mxCell id="19" style="edgeStyle=none;html=1;exitX=0;exitY=0.5;exitDx=0;exitDy=0;entryX=1;entryY=0.5;entryDx=0;entryDy=0;rounded=0;curved=1;shadow=0;fontStyle=1" edge="1" parent="1" source="21" target="23">
                    <mxGeometry relative="1" as="geometry"/>
                </mxCell>
                <mxCell id="21" value="HttpsColon" style="ellipse;whiteSpace=wrap;html=1;aspect=fixed;shadow=0;fontStyle=1" vertex="1" parent="1">
                    <mxGeometry x="450" y="310" width="70" height="70" as="geometry"/>
                </mxCell>
                <mxCell id="22" style="edgeStyle=none;html=1;exitX=0;exitY=0.5;exitDx=0;exitDy=0;entryX=1;entryY=0.5;entryDx=0;entryDy=0;rounded=0;curved=1;shadow=0;fontStyle=1" edge="1" parent="1" source="23" target="26">
                    <mxGeometry relative="1" as="geometry"/>
                </mxCell>
                <mxCell id="23" value="HttpsColon&lt;div&gt;Slash&lt;/div&gt;" style="ellipse;whiteSpace=wrap;html=1;aspect=fixed;shadow=0;fontStyle=1" vertex="1" parent="1">
                    <mxGeometry x="340" y="280" width="70" height="70" as="geometry"/>
                </mxCell>
                <mxCell id="24" style="edgeStyle=none;html=1;exitX=0;exitY=0.5;exitDx=0;exitDy=0;entryX=0.5;entryY=0;entryDx=0;entryDy=0;shadow=0;rounded=0;curved=1;fontStyle=1" edge="1" parent="1" source="26" target="29">
                    <mxGeometry relative="1" as="geometry">
                        <Array as="points">
                            <mxPoint x="190" y="290"/>
                            <mxPoint x="170" y="280"/>
                        </Array>
                    </mxGeometry>
                </mxCell>
                <mxCell id="26" value="HttpsColon&lt;div&gt;SlashSlash&lt;/div&gt;" style="ellipse;whiteSpace=wrap;html=1;aspect=fixed;shadow=0;fontStyle=1" vertex="1" parent="1">
                    <mxGeometry x="230" y="300" width="70" height="70" as="geometry"/>
                </mxCell>
                <mxCell id="27" style="edgeStyle=none;html=1;exitX=0.5;exitY=1;exitDx=0;exitDy=0;entryX=0.5;entryY=0;entryDx=0;entryDy=0;shadow=0;rounded=0;curved=1;fontStyle=1" edge="1" parent="1" source="29" target="32">
                    <mxGeometry relative="1" as="geometry"/>
                </mxCell>
                <mxCell id="29" value="D" style="ellipse;whiteSpace=wrap;html=1;aspect=fixed;shadow=0;fontStyle=1" vertex="1" parent="1">
                    <mxGeometry x="80" y="290" width="70" height="70" as="geometry"/>
                </mxCell>
                <mxCell id="30" style="edgeStyle=none;html=1;exitX=1;exitY=0.5;exitDx=0;exitDy=0;entryX=0.049;entryY=0.391;entryDx=0;entryDy=0;entryPerimeter=0;shadow=0;rounded=0;curved=1;fontStyle=1" edge="1" parent="1" source="32" target="35">
                    <mxGeometry relative="1" as="geometry">
                        <Array as="points">
                            <mxPoint x="190" y="490"/>
                        </Array>
                    </mxGeometry>
                </mxCell>
                <mxCell id="32" value="Di" style="ellipse;whiteSpace=wrap;html=1;aspect=fixed;shadow=0;fontStyle=1" vertex="1" parent="1">
                    <mxGeometry x="80" y="420" width="70" height="70" as="geometry"/>
                </mxCell>
                <mxCell id="33" style="edgeStyle=none;html=1;exitX=1;exitY=0.5;exitDx=0;exitDy=0;entryX=0;entryY=0.5;entryDx=0;entryDy=0;shadow=0;rounded=0;curved=1;fontStyle=1" edge="1" parent="1" source="35" target="38">
                    <mxGeometry relative="1" as="geometry"/>
                </mxCell>
                <mxCell id="35" value="Dis" style="ellipse;whiteSpace=wrap;html=1;aspect=fixed;shadow=0;fontStyle=1" vertex="1" parent="1">
                    <mxGeometry x="250" y="460" width="70" height="70" as="geometry"/>
                </mxCell>
                <mxCell id="36" style="edgeStyle=none;html=1;exitX=1;exitY=0.5;exitDx=0;exitDy=0;entryX=0;entryY=0.5;entryDx=0;entryDy=0;shadow=0;rounded=0;curved=1;fontStyle=1" edge="1" parent="1" source="38" target="41">
                    <mxGeometry relative="1" as="geometry"/>
                </mxCell>
                <mxCell id="38" value="Disk" style="ellipse;whiteSpace=wrap;html=1;aspect=fixed;shadow=0;fontStyle=1" vertex="1" parent="1">
                    <mxGeometry x="410" y="460" width="70" height="70" as="geometry"/>
                </mxCell>
                <mxCell id="39" style="edgeStyle=none;html=1;exitX=1;exitY=0.5;exitDx=0;exitDy=0;shadow=0;rounded=0;curved=1;fontStyle=1" edge="1" parent="1" source="41" target="44">
                    <mxGeometry relative="1" as="geometry"/>
                </mxCell>
                <mxCell id="41" value="DiskDot" style="ellipse;whiteSpace=wrap;html=1;aspect=fixed;shadow=0;fontStyle=1" vertex="1" parent="1">
                    <mxGeometry x="570" y="450" width="70" height="70" as="geometry"/>
                </mxCell>
                <mxCell id="42" style="edgeStyle=none;html=1;exitX=0.5;exitY=1;exitDx=0;exitDy=0;shadow=0;rounded=0;curved=1;fontStyle=1" edge="1" parent="1" source="44" target="47">
                    <mxGeometry relative="1" as="geometry"/>
                </mxCell>
                <mxCell id="44" value="DiskDotY" style="ellipse;whiteSpace=wrap;html=1;aspect=fixed;shadow=0;fontStyle=1" vertex="1" parent="1">
                    <mxGeometry x="710" y="450" width="70" height="70" as="geometry"/>
                </mxCell>
                <mxCell id="45" style="edgeStyle=none;html=1;exitX=0;exitY=1;exitDx=0;exitDy=0;entryX=1;entryY=0.5;entryDx=0;entryDy=0;shadow=0;rounded=0;curved=1;fontStyle=1" edge="1" parent="1" source="47" target="50">
                    <mxGeometry relative="1" as="geometry"/>
                </mxCell>
                <mxCell id="47" value="DiskDotYa" style="ellipse;whiteSpace=wrap;html=1;aspect=fixed;shadow=0;fontStyle=1" vertex="1" parent="1">
                    <mxGeometry x="580" y="610" width="70" height="70" as="geometry"/>
                </mxCell>
                <mxCell id="48" style="edgeStyle=none;html=1;exitX=0;exitY=0.5;exitDx=0;exitDy=0;entryX=1;entryY=0.5;entryDx=0;entryDy=0;shadow=0;rounded=0;curved=1;fontStyle=1" edge="1" parent="1" source="50" target="53">
                    <mxGeometry relative="1" as="geometry"/>
                </mxCell>
                <mxCell id="50" value="DiskDotYan" style="ellipse;whiteSpace=wrap;html=1;aspect=fixed;shadow=0;fontStyle=1" vertex="1" parent="1">
                    <mxGeometry x="420" y="630" width="70" height="70" as="geometry"/>
                </mxCell>
                <mxCell id="51" style="edgeStyle=none;html=1;exitX=0;exitY=0.5;exitDx=0;exitDy=0;entryX=1;entryY=0.5;entryDx=0;entryDy=0;shadow=0;rounded=0;curved=1;fontStyle=1" edge="1" parent="1" source="53" target="56">
                    <mxGeometry relative="1" as="geometry"/>
                </mxCell>
                <mxCell id="53" value="DiskDotYand" style="ellipse;whiteSpace=wrap;html=1;aspect=fixed;shadow=0;fontStyle=1" vertex="1" parent="1">
                    <mxGeometry x="240" y="610" width="70" height="70" as="geometry"/>
                </mxCell>
                <mxCell id="54" style="edgeStyle=none;html=1;exitX=0.5;exitY=1;exitDx=0;exitDy=0;entryX=0.5;entryY=0;entryDx=0;entryDy=0;shadow=0;rounded=0;curved=1;fontStyle=1" edge="1" parent="1" source="56" target="59">
                    <mxGeometry relative="1" as="geometry"/>
                </mxCell>
                <mxCell id="56" value="DiskDot&lt;div&gt;Yandex&lt;/div&gt;" style="ellipse;whiteSpace=wrap;html=1;aspect=fixed;shadow=0;fontStyle=1" vertex="1" parent="1">
                    <mxGeometry x="70" y="610" width="70" height="70" as="geometry"/>
                </mxCell>
                <mxCell id="57" style="edgeStyle=none;html=1;exitX=1;exitY=1;exitDx=0;exitDy=0;entryX=0;entryY=0.5;entryDx=0;entryDy=0;shadow=0;rounded=0;curved=1;fontStyle=1" edge="1" parent="1" source="59" target="62">
                    <mxGeometry relative="1" as="geometry"/>
                </mxCell>
                <mxCell id="59" value="DiskDot&lt;div&gt;Yandex&lt;/div&gt;" style="ellipse;whiteSpace=wrap;html=1;aspect=fixed;shadow=0;fontStyle=1" vertex="1" parent="1">
                    <mxGeometry x="160" y="730" width="70" height="70" as="geometry"/>
                </mxCell>
                <mxCell id="60" style="edgeStyle=none;html=1;exitX=1;exitY=0.5;exitDx=0;exitDy=0;entryX=0;entryY=0.5;entryDx=0;entryDy=0;shadow=0;rounded=0;curved=1;fontStyle=1" edge="1" parent="1" source="62" target="65">
                    <mxGeometry relative="1" as="geometry"/>
                </mxCell>
                <mxCell id="62" value="YandexDot" style="ellipse;whiteSpace=wrap;html=1;aspect=fixed;shadow=0;fontStyle=1" vertex="1" parent="1">
                    <mxGeometry x="330" y="790" width="70" height="70" as="geometry"/>
                </mxCell>
                <mxCell id="63" style="edgeStyle=none;html=1;exitX=1;exitY=0.5;exitDx=0;exitDy=0;entryX=0;entryY=0.5;entryDx=0;entryDy=0;shadow=0;rounded=0;curved=1;fontStyle=1" edge="1" parent="1" source="65" target="68">
                    <mxGeometry relative="1" as="geometry"/>
                </mxCell>
                <mxCell id="65" value="YandexDotR" style="ellipse;whiteSpace=wrap;html=1;aspect=fixed;shadow=0;fontStyle=1" vertex="1" parent="1">
                    <mxGeometry x="530" y="770" width="70" height="70" as="geometry"/>
                </mxCell>
                <mxCell id="66" style="edgeStyle=none;html=1;exitX=0.5;exitY=1;exitDx=0;exitDy=0;entryX=1;entryY=0;entryDx=0;entryDy=0;shadow=0;rounded=0;curved=1;fontStyle=1" edge="1" parent="1" source="68" target="71">
                    <mxGeometry relative="1" as="geometry"/>
                </mxCell>
                <mxCell id="68" value="YandexDot&lt;div&gt;Ru&lt;/div&gt;" style="ellipse;whiteSpace=wrap;html=1;aspect=fixed;shadow=0;fontStyle=1" vertex="1" parent="1">
                    <mxGeometry x="720" y="780" width="70" height="70" as="geometry"/>
                </mxCell>
                <mxCell id="69" style="edgeStyle=none;html=1;exitX=0;exitY=0.5;exitDx=0;exitDy=0;shadow=0;rounded=0;curved=1;fontStyle=1" edge="1" parent="1" source="71" target="74">
                    <mxGeometry relative="1" as="geometry"/>
                </mxCell>
                <mxCell id="71" value="YandexDot&lt;div&gt;RuSlash&lt;/div&gt;" style="ellipse;whiteSpace=wrap;html=1;aspect=fixed;shadow=0;fontStyle=1" vertex="1" parent="1">
                    <mxGeometry x="625" y="885" width="70" height="70" as="geometry"/>
                </mxCell>
                <mxCell id="72" style="edgeStyle=none;html=1;exitX=0;exitY=0.5;exitDx=0;exitDy=0;entryX=1;entryY=0.5;entryDx=0;entryDy=0;fontFamily=Helvetica;fontSize=12;fontColor=default;shadow=0;rounded=0;curved=1;fontStyle=1" edge="1" parent="1" source="74" target="104">
                    <mxGeometry relative="1" as="geometry"/>
                </mxCell>
                <mxCell id="74" value="YandexDot&lt;div&gt;RuSlashD&lt;/div&gt;" style="ellipse;whiteSpace=wrap;html=1;aspect=fixed;shadow=0;fontStyle=1" vertex="1" parent="1">
                    <mxGeometry x="485" y="955" width="70" height="70" as="geometry"/>
                </mxCell>
                <mxCell id="78" value="p" style="text;html=1;align=center;verticalAlign=middle;whiteSpace=wrap;rounded=0;shadow=0;fontStyle=1" vertex="1" parent="1">
                    <mxGeometry x="630" y="130" width="60" height="30" as="geometry"/>
                </mxCell>
                <mxCell id="79" value="s" style="text;html=1;align=center;verticalAlign=middle;whiteSpace=wrap;rounded=0;shadow=0;fontStyle=1" vertex="1" parent="1">
                    <mxGeometry x="635" y="260" width="60" height="30" as="geometry"/>
                </mxCell>
                <mxCell id="80" value=":" style="text;html=1;align=center;verticalAlign=middle;whiteSpace=wrap;rounded=0;shadow=0;fontStyle=1" vertex="1" parent="1">
                    <mxGeometry x="530" y="340" width="60" height="30" as="geometry"/>
                </mxCell>
                <mxCell id="81" value="/" style="text;html=1;align=center;verticalAlign=middle;whiteSpace=wrap;rounded=0;shadow=0;fontStyle=1" vertex="1" parent="1">
                    <mxGeometry x="395" y="330" width="60" height="30" as="geometry"/>
                </mxCell>
                <mxCell id="83" value="/" style="text;html=1;align=center;verticalAlign=middle;whiteSpace=wrap;rounded=0;shadow=0;fontStyle=1" vertex="1" parent="1">
                    <mxGeometry x="290" y="290" width="60" height="30" as="geometry"/>
                </mxCell>
                <mxCell id="84" value="d" style="text;html=1;align=center;verticalAlign=middle;whiteSpace=wrap;rounded=0;shadow=0;fontStyle=1" vertex="1" parent="1">
                    <mxGeometry x="165" y="250" width="60" height="30" as="geometry"/>
                </mxCell>
                <mxCell id="85" value="i" style="text;html=1;align=center;verticalAlign=middle;whiteSpace=wrap;rounded=0;shadow=0;fontStyle=1" vertex="1" parent="1">
                    <mxGeometry x="105" y="370" width="60" height="30" as="geometry"/>
                </mxCell>
                <mxCell id="86" value="s" style="text;html=1;align=center;verticalAlign=middle;whiteSpace=wrap;rounded=0;shadow=0;fontStyle=1" vertex="1" parent="1">
                    <mxGeometry x="165" y="450" width="60" height="30" as="geometry"/>
                </mxCell>
                <mxCell id="87" value="k" style="text;html=1;align=center;verticalAlign=middle;whiteSpace=wrap;rounded=0;shadow=0;fontStyle=1" vertex="1" parent="1">
                    <mxGeometry x="330" y="460" width="60" height="30" as="geometry"/>
                </mxCell>
                <mxCell id="88" value="." style="text;html=1;align=center;verticalAlign=middle;whiteSpace=wrap;rounded=0;shadow=0;fontStyle=1" vertex="1" parent="1">
                    <mxGeometry x="490" y="460" width="60" height="30" as="geometry"/>
                </mxCell>
                <mxCell id="89" value="y" style="text;html=1;align=center;verticalAlign=middle;whiteSpace=wrap;rounded=0;shadow=0;fontStyle=1" vertex="1" parent="1">
                    <mxGeometry x="650" y="450" width="60" height="30" as="geometry"/>
                </mxCell>
                <mxCell id="90" value="a" style="text;html=1;align=center;verticalAlign=middle;whiteSpace=wrap;rounded=0;shadow=0;fontStyle=1" vertex="1" parent="1">
                    <mxGeometry x="630" y="555" width="60" height="30" as="geometry"/>
                </mxCell>
                <mxCell id="91" value="n" style="text;html=1;align=center;verticalAlign=middle;whiteSpace=wrap;rounded=0;shadow=0;fontStyle=1" vertex="1" parent="1">
                    <mxGeometry x="490" y="630" width="60" height="30" as="geometry"/>
                </mxCell>
                <mxCell id="92" value="d" style="text;html=1;align=center;verticalAlign=middle;whiteSpace=wrap;rounded=0;shadow=0;fontStyle=1" vertex="1" parent="1">
                    <mxGeometry x="345" y="630" width="60" height="30" as="geometry"/>
                </mxCell>
                <mxCell id="93" value="e" style="text;html=1;align=center;verticalAlign=middle;whiteSpace=wrap;rounded=0;shadow=0;fontStyle=1" vertex="1" parent="1">
                    <mxGeometry x="150" y="610" width="60" height="30" as="geometry"/>
                </mxCell>
                <mxCell id="94" value="x" style="text;html=1;align=center;verticalAlign=middle;whiteSpace=wrap;rounded=0;shadow=0;fontStyle=1" vertex="1" parent="1">
                    <mxGeometry x="140" y="670" width="60" height="30" as="geometry"/>
                </mxCell>
                <mxCell id="95" value="." style="text;html=1;align=center;verticalAlign=middle;whiteSpace=wrap;rounded=0;shadow=0;fontStyle=1" vertex="1" parent="1">
                    <mxGeometry x="245" y="760" width="60" height="30" as="geometry"/>
                </mxCell>
                <mxCell id="96" value="r" style="text;html=1;align=center;verticalAlign=middle;whiteSpace=wrap;rounded=0;shadow=0;fontStyle=1" vertex="1" parent="1">
                    <mxGeometry x="430" y="780" width="60" height="30" as="geometry"/>
                </mxCell>
                <mxCell id="97" value="ru" style="text;html=1;align=center;verticalAlign=middle;whiteSpace=wrap;rounded=0;shadow=0;fontStyle=1" vertex="1" parent="1">
                    <mxGeometry x="620" y="780" width="60" height="30" as="geometry"/>
                </mxCell>
                <mxCell id="98" value="/" style="text;html=1;align=center;verticalAlign=middle;whiteSpace=wrap;rounded=0;shadow=0;fontStyle=1" vertex="1" parent="1">
                    <mxGeometry x="670" y="850" width="60" height="30" as="geometry"/>
                </mxCell>
                <mxCell id="99" value="d" style="text;html=1;align=center;verticalAlign=middle;whiteSpace=wrap;rounded=0;shadow=0;fontStyle=1" vertex="1" parent="1">
                    <mxGeometry x="560" y="910" width="60" height="30" as="geometry"/>
                </mxCell>
                <mxCell id="100" value="/" style="text;html=1;align=center;verticalAlign=middle;whiteSpace=wrap;rounded=0;shadow=0;fontStyle=1" vertex="1" parent="1">
                    <mxGeometry x="425" y="960" width="60" height="30" as="geometry"/>
                </mxCell>
                <mxCell id="101" style="edgeStyle=none;html=1;exitX=1;exitY=0;exitDx=0;exitDy=0;entryX=0.294;entryY=0.083;entryDx=0;entryDy=0;rounded=0;curved=1;entryPerimeter=0;shadow=0;fontStyle=1" edge="1" parent="1">
                    <mxGeometry relative="1" as="geometry">
                        <mxPoint x="389.74873734152925" y="980.2512626584708" as="sourcePoint"/>
                        <mxPoint x="350.5799999999999" y="975.81" as="targetPoint"/>
                        <Array as="points">
                            <mxPoint x="410" y="920"/>
                            <mxPoint x="340" y="950"/>
                        </Array>
                    </mxGeometry>
                </mxCell>
                <mxCell id="102" value="a ∈ Σ / #,%,;,,." style="text;html=1;align=center;verticalAlign=middle;whiteSpace=wrap;rounded=0;shadow=0;fontStyle=1" vertex="1" parent="1">
                    <mxGeometry x="360" y="900" width="60" height="30" as="geometry"/>
                </mxCell>
                <mxCell id="103" value="" style="endArrow=classic;html=1;shadow=0;rounded=0;curved=1;fontStyle=1" edge="1" parent="1">
                    <mxGeometry width="50" height="50" relative="1" as="geometry">
                        <mxPoint x="40" y="154.5" as="sourcePoint"/>
                        <mxPoint x="110" y="154.5" as="targetPoint"/>
                    </mxGeometry>
                </mxCell>
                <mxCell id="104" value="" style="ellipse;whiteSpace=wrap;html=1;aspect=fixed;shadow=0;fontStyle=1" vertex="1" parent="1">
                    <mxGeometry x="330" y="970" width="70" height="70" as="geometry"/>
                </mxCell>
                <mxCell id="105" value="" style="verticalLabelPosition=bottom;verticalAlign=top;html=1;shape=mxgraph.flowchart.on-page_reference;shadow=0;strokeColor=default;align=center;fontFamily=Helvetica;fontSize=12;fontColor=default;fillColor=default;fontStyle=1" vertex="1" parent="1">
                    <mxGeometry x="335" y="975" width="60" height="60" as="geometry"/>
                </mxCell>
                <mxCell id="106" value="&lt;span style=&quot;font-size: 10px;&quot;&gt;Final&lt;/span&gt;" style="text;html=1;align=center;verticalAlign=middle;whiteSpace=wrap;rounded=0;fontFamily=Helvetica;fontSize=12;fontColor=default;shadow=0;fontStyle=1" vertex="1" parent="1">
                    <mxGeometry x="335" y="990" width="60" height="30" as="geometry"/>
                </mxCell>
                <mxCell id="134" value="" style="endArrow=classic;html=1;exitX=0.429;exitY=0;exitDx=0;exitDy=0;exitPerimeter=0;entryX=0;entryY=0;entryDx=0;entryDy=0;" edge="1" parent="1">
                    <mxGeometry width="50" height="50" relative="1" as="geometry">
                        <mxPoint x="140" y="120" as="sourcePoint"/>
                        <mxPoint x="120" y="130" as="targetPoint"/>
                        <Array as="points">
                            <mxPoint x="100" y="80"/>
                        </Array>
                    </mxGeometry>
                </mxCell>
                <mxCell id="135" value="a ∈ Σ/h | input&lt;div&gt;a ∉ Σ&amp;nbsp;&lt;/div&gt;" style="text;html=1;align=center;verticalAlign=middle;whiteSpace=wrap;rounded=0;shadow=0;fontStyle=1" vertex="1" parent="1">
                    <mxGeometry x="50" y="60" width="60" height="30" as="geometry"/>
                </mxCell>
                <mxCell id="136" value="h" style="text;html=1;align=center;verticalAlign=middle;whiteSpace=wrap;rounded=0;shadow=0;fontStyle=1" vertex="1" parent="1">
                    <mxGeometry x="180" y="120" width="60" height="30" as="geometry"/>
                </mxCell>
                <mxCell id="137" value="t" style="text;html=1;align=center;verticalAlign=middle;whiteSpace=wrap;rounded=0;shadow=0;fontStyle=1" vertex="1" parent="1">
                    <mxGeometry x="340" y="120" width="60" height="30" as="geometry"/>
                </mxCell>
                <mxCell id="138" value="t" style="text;html=1;align=center;verticalAlign=middle;whiteSpace=wrap;rounded=0;shadow=0;fontStyle=1" vertex="1" parent="1">
                    <mxGeometry x="480" y="120" width="60" height="30" as="geometry"/>
                </mxCell>
            </root>
        </mxGraphModel>
    </diagram>
</mxfile>